<svg width="1060" height="1080" viewBox="0 0 1060 1080" fill="none" xmlns="http://www.w3.org/2000/svg">
<path d="M275.263 909.424C270.388 915.559 261.491 916.544 255.391 911.625L208.794 874.049C202.694 869.13 201.701 860.169 206.577 854.034L455.833 540.387C460.708 534.252 469.606 533.266 475.706 538.185L522.302 575.761C528.402 580.681 529.395 589.642 524.519 595.777L399.891 752.6L275.263 909.424Z" fill="#2B2B2B"/>
<mask id="path-2-outside-1_1_65" maskUnits="userSpaceOnUse" x="438.918" y="121.037" width="451.626" height="454.742" fill="black">
<rect fill="#2B2B2B" x="438.918" y="121.037" width="451.626" height="454.742"/>
<path d="M673.663 133.942C720.032 135.823 764.517 152.933 800.331 182.662C836.144 212.391 861.319 253.106 872.015 298.595C882.71 344.084 878.338 391.848 859.567 434.6C840.795 477.352 808.654 512.744 768.049 535.376C727.443 558.008 680.602 566.636 634.673 559.945C588.745 553.253 546.25 531.61 513.674 498.316C481.097 465.023 460.228 421.908 454.25 375.55C448.273 329.192 457.515 282.137 480.566 241.565L488.752 246.284C466.723 285.057 457.891 330.025 463.603 374.326C469.316 418.628 489.259 459.83 520.391 491.647C551.522 523.464 592.132 544.147 636.023 550.542C679.915 556.936 724.678 548.691 763.483 527.063C802.287 505.435 833.002 471.613 850.941 430.757C868.88 389.902 873.058 344.256 862.837 300.784C852.616 257.313 828.558 218.404 794.333 189.994C760.108 161.584 717.596 145.232 673.284 143.435L673.663 133.942Z"/>
</mask>
<path d="M673.663 133.942C720.032 135.823 764.517 152.933 800.331 182.662C836.144 212.391 861.319 253.106 872.015 298.595C882.71 344.084 878.338 391.848 859.567 434.6C840.795 477.352 808.654 512.744 768.049 535.376C727.443 558.008 680.602 566.636 634.673 559.945C588.745 553.253 546.25 531.61 513.674 498.316C481.097 465.023 460.228 421.908 454.25 375.55C448.273 329.192 457.515 282.137 480.566 241.565L488.752 246.284C466.723 285.057 457.891 330.025 463.603 374.326C469.316 418.628 489.259 459.83 520.391 491.647C551.522 523.464 592.132 544.147 636.023 550.542C679.915 556.936 724.678 548.691 763.483 527.063C802.287 505.435 833.002 471.613 850.941 430.757C868.88 389.902 873.058 344.256 862.837 300.784C852.616 257.313 828.558 218.404 794.333 189.994C760.108 161.584 717.596 145.232 673.284 143.435L673.663 133.942Z" fill="#2B2B2B"/>
<path d="M673.663 133.942C720.032 135.823 764.517 152.933 800.331 182.662C836.144 212.391 861.319 253.106 872.015 298.595C882.71 344.084 878.338 391.848 859.567 434.6C840.795 477.352 808.654 512.744 768.049 535.376C727.443 558.008 680.602 566.636 634.673 559.945C588.745 553.253 546.25 531.61 513.674 498.316C481.097 465.023 460.228 421.908 454.25 375.55C448.273 329.192 457.515 282.137 480.566 241.565L488.752 246.284C466.723 285.057 457.891 330.025 463.603 374.326C469.316 418.628 489.259 459.83 520.391 491.647C551.522 523.464 592.132 544.147 636.023 550.542C679.915 556.936 724.678 548.691 763.483 527.063C802.287 505.435 833.002 471.613 850.941 430.757C868.88 389.902 873.058 344.256 862.837 300.784C852.616 257.313 828.558 218.404 794.333 189.994C760.108 161.584 717.596 145.232 673.284 143.435L673.663 133.942Z" stroke="#2B2B2B" stroke-width="8" mask="url(#path-2-outside-1_1_65)"/>
<ellipse rx="76.2887" ry="76.411" transform="matrix(0.778428 0.627734 -0.622163 0.782888 664.967 346.662)" fill="#2B2B2B"/>
</svg>
