<svg width="26" height="26" viewBox="0 0 26 26" fill="none" xmlns="http://www.w3.org/2000/svg">
<path d="M1.14229 25.6226C0.839335 25.6226 0.54879 25.5101 0.334569 25.3099C0.120348 25.1097 0 24.8381 0 24.555V1.06743C3.39842e-05 0.881913 0.0517921 0.699603 0.150173 0.538472C0.248554 0.377342 0.390162 0.242953 0.561039 0.148552C0.731916 0.0541501 0.926163 0.00299449 1.12464 0.000127519C1.32311 -0.00273946 1.51896 0.0427811 1.69287 0.132202L24.5386 11.876C24.7177 11.9681 24.8671 12.1035 24.9711 12.268C25.0751 12.4325 25.13 12.6201 25.13 12.8112C25.13 13.0023 25.0751 13.1899 24.9711 13.3544C24.8671 13.5189 24.7177 13.6543 24.5386 13.7464L1.69287 25.4902C1.52421 25.577 1.33482 25.6225 1.14229 25.6226Z" fill="#2B2B2B"/>
</svg>
