<svg width="308" height="236" viewBox="0 0 308 236" fill="none" xmlns="http://www.w3.org/2000/svg">
<line y1="-1.5" x2="356.828" y2="-1.5" transform="matrix(0.855104 -0.518457 0.556643 0.830752 2 236)" stroke="#4AB41D" stroke-width="3" stroke-dasharray="10 10"/>
<path d="M80.429 66.0484C94.2042 58.6214 105.508 64.4951 105.561 79.155V108.912C105.419 111.635 104.577 114.288 103.105 116.651C101.633 119.014 99.5734 121.021 97.0959 122.504L62.0271 141.338C57.2952 143.863 53.457 141.872 53.457 136.872V107.164C53.876 99.1797 56.3387 91.4005 60.6433 84.4645C64.9478 77.5285 70.9716 71.6332 78.2208 67.262L80.429 66.0484Z" fill="#333637"/>
<path d="M119.33 173.776C119.33 173.776 119.33 159.99 129.372 155.087C131.212 154.165 138.258 154.019 140.834 152.466C145.619 149.651 146.723 145.427 154.189 146.641C159.814 147.515 121.591 124.845 115.86 122.369C96.1437 113.146 75.1655 115.379 70.381 127.224C64.7027 141.787 66.648 150.039 78.2675 156.349C86.6798 160.913 119.067 169.893 119.33 174.747C119.593 179.601 119.33 173.776 119.33 173.776Z" fill="#08273A"/>
<path d="M95.4629 64.5999C99.301 71.5415 107.293 88.8713 114.811 96.2984C116.198 97.3987 117.926 98.0663 119.748 98.2058C121.571 98.3453 123.394 97.9495 124.959 97.0751C129.533 94.8421 116.073 69.3085 110.342 59.2116C104.611 49.1147 99.3536 47.3186 94.832 49.5031C90.3104 51.6875 89.732 54.4059 95.4629 64.5999Z" fill="#10292E"/>
<path d="M71.3832 75.1295C69.543 71.2461 63.3916 67.9452 64.9163 63.4792C66.441 59.0133 77.0615 51.0037 81.478 48.9164C86.7149 47.1952 92.2912 46.533 97.8294 46.9747C99.7472 46.8881 101.667 47.1014 103.508 47.6057C106.925 48.7708 115.338 65.5181 115.811 68.819C116.451 71.2002 116.395 73.696 115.646 76.0503C114.898 78.4047 113.485 80.5329 111.552 82.2168C108.608 85.5663 104.139 103.964 108.608 117.022C110.185 121.634 107.398 124.837 102.036 127.119C83.7388 134.837 67.7554 131.973 72.1719 121.294C74.6962 113.173 74.6962 104.561 72.1719 96.4399C69.911 86.1002 73.1183 79.1101 71.3832 75.1295Z" fill="#2A7409"/>
<path d="M58.6613 75.7597C57.452 83.5265 52.9304 102.021 54.4551 111.924C54.8884 113.562 55.8672 115.033 57.2537 116.13C58.6402 117.228 60.3645 117.896 62.1839 118.041C67.4416 118.672 72.4365 90.7109 74.2241 79.2062C76.0117 67.7015 75.7488 61.6337 70.6488 61.0512C65.5488 60.4687 60.4489 64.4492 58.6613 75.7597Z" fill="#10292E"/>
<path d="M92.996 50.5144C92.9729 50.3533 92.9729 50.19 92.996 50.0289C92.3421 47.8223 91.9195 45.5628 91.7342 43.2815C91.8344 42.4426 91.8344 41.5961 91.7342 40.7572C91.2823 40.1467 90.7024 39.626 90.0289 39.2258C89.3553 38.8257 88.6017 38.5542 87.8126 38.4275C87.0234 38.3008 86.2148 38.3214 85.4345 38.4881C84.6542 38.6548 83.9179 38.9642 83.2693 39.398C82.2703 40.3689 83.0064 43.0388 82.5332 44.2523C81.692 47.2134 78.2745 51.0969 80.5879 53.9609C81.2383 55.5528 82.2826 56.9823 83.6374 58.1356C88.0473 60.3014 92.6793 62.0576 97.4651 63.3782C97.688 61.0672 97.4074 58.7383 96.6398 56.5289C95.8723 54.3196 94.6333 52.2745 92.996 50.5144Z" fill="#F9CB98"/>
<path d="M85.686 5.51878C83.4252 -1.66556 72.7521 -0.209275 69.4398 1.0043C63.4986 3.18873 60.8172 11.1498 61.2904 16.8778C61.8965 20.2475 63.03 23.5179 64.6553 26.5864C65.9246 28.8746 66.4193 31.4623 66.0749 34.0134C65.714 35.7697 64.666 37.342 63.1306 38.4308C61.8724 39.0112 60.8293 39.9235 60.1337 41.0522C58.977 43.5764 61.1852 45.5181 63.4986 46.2948C63.0878 45.6913 62.8699 44.993 62.8699 44.2803C62.8699 43.5675 63.0878 42.8692 63.4986 42.2657C65.166 40.9114 67.1164 39.8871 69.2294 39.2561C70.4022 38.9047 71.4791 38.3238 72.3864 37.5531C73.2938 36.7823 74.0103 35.8399 74.4871 34.7901C74.918 33.665 75.1661 32.4872 75.2232 31.2951C75.0997 29.1239 75.1877 26.9469 75.4861 24.7903L85.686 5.51878Z" fill="#993E25"/>
<path d="M77.849 13.8695C81.0037 8.38417 89.1005 10.8113 95.7778 11.2967C102.455 11.7822 104.821 14.3064 105.82 25.8596C105.798 26.5095 105.599 27.1437 105.242 27.7042C103.822 30.1799 105.662 32.5585 105.242 35.4711C104.561 38.8236 103.43 42.0849 101.877 45.1797C101.246 46.9272 101.246 47.4612 99.1427 47.7039C97.2267 47.9275 95.2805 47.7278 93.4644 47.1214C89.8671 46.5302 86.4769 45.1482 83.58 43.0923C81.2762 40.2723 79.8901 36.9047 79.5841 33.3837C78.48 28.0926 74.8522 19.0151 77.849 13.8695Z" fill="#FED8A7"/>
<path d="M103.351 13.0468C101.112 9.6768 97.6796 7.12529 93.6358 5.82476C89.5921 4.52423 85.1856 4.55471 81.1634 5.91102C78.3697 6.86673 75.8781 8.45013 73.9136 10.5181C71.9492 12.5861 70.5738 15.0735 69.912 17.7555C69.2748 20.3949 69.4275 23.1446 70.3537 25.71C71.2799 28.2754 72.9447 30.5598 75.1696 32.3183C76.2738 33.2892 77.483 34.26 78.6923 35.1824C79.634 35.9837 80.4325 36.9176 81.0582 37.9493C80.4273 33.4834 78.0088 21.5418 84.1603 15.1341C85.8153 16.2166 87.7623 16.855 89.786 16.9788C91.946 16.7497 94.0767 16.327 96.1479 15.7167C97.7881 15.4882 99.4636 15.6213 101.037 16.105C102.428 16.5891 103.724 17.2776 104.876 18.1438C105.296 16.8817 103.929 13.872 103.351 13.0468Z" fill="#8E3719"/>
<path d="M80.4311 31.7767C81.7455 33.7669 82.0609 35.7572 81.1671 36.2912C80.2733 36.8251 78.4331 35.6601 77.1187 33.6698C75.8043 31.6796 75.4888 29.7379 76.3826 29.2039C77.2764 28.6699 79.1692 29.835 80.4311 31.7767Z" fill="#FED8A7"/>
<path d="M298.253 123.767L198.357 70.5156L26.3779 162.747L126.274 215.999L298.253 123.767Z" fill="#3DA40E"/>
<path d="M120.49 155.809L190.89 118.236L158.661 101.635L88.2075 139.207L120.49 155.809Z" fill="#BDC3C7"/>
<path d="M120.49 154.252L190.89 116.68L158.661 100.127L88.2075 137.602L120.49 154.252Z" fill="#ECF0F1"/>
<path d="M128.903 120.809V121.052L131.217 122.217C131.217 122.217 131.532 122.217 131.585 122.217L134.95 120.421L132.689 119.207C132.631 119.159 132.556 119.133 132.479 119.133C132.401 119.133 132.326 119.159 132.268 119.207L128.903 120.809Z" fill="#7F8B8C"/>
<path d="M124.381 123.284L126.59 124.498C126.656 124.549 126.74 124.577 126.826 124.577C126.913 124.577 126.996 124.549 127.063 124.498L130.375 122.702C130.375 122.702 130.375 122.702 130.375 122.459L128.114 121.294C128.041 121.26 127.96 121.242 127.878 121.242C127.796 121.242 127.714 121.26 127.641 121.294L124.381 123.284Z" fill="#7F8B8C"/>
<path d="M119.752 125.754L122.013 126.967H122.486L125.798 125.171C125.798 125.171 125.798 125.171 125.798 124.928L123.537 123.715H123.17L119.752 125.754Z" fill="#7F8B8C"/>
<path d="M115.177 128.237L117.49 129.451C117.548 129.499 117.623 129.525 117.7 129.525C117.778 129.525 117.853 129.499 117.911 129.451L121.223 127.655L118.91 126.441C118.91 126.441 118.647 126.441 118.489 126.441L115.177 128.237Z" fill="#7F8B8C"/>
<path d="M110.664 130.66C110.664 130.66 110.664 130.66 110.664 130.903L112.924 132.116H113.345L116.657 130.32L114.449 129.107C114.376 129.072 114.295 129.055 114.213 129.055C114.13 129.055 114.049 129.072 113.976 129.107L110.664 130.66Z" fill="#7F8B8C"/>
<path d="M106.085 133.38L108.293 134.593H108.766L112.131 132.749L109.818 131.535C109.764 131.5 109.7 131.48 109.634 131.48C109.568 131.48 109.504 131.5 109.45 131.535L106.085 133.38Z" fill="#7F8B8C"/>
<path d="M101.46 135.612L103.773 136.777H104.194L107.559 134.981L105.246 133.767C105.11 133.718 104.96 133.718 104.825 133.767L101.46 135.612Z" fill="#7F8B8C"/>
<path d="M96.4634 138.237L98.7241 139.451C98.782 139.499 98.8569 139.525 98.9345 139.525C99.0121 139.525 99.0869 139.499 99.1448 139.451L103.403 137.169C103.403 137.169 103.403 137.169 103.403 136.927L101.143 135.762C101.085 135.714 101.01 135.688 100.932 135.688C100.855 135.688 100.78 135.714 100.722 135.762L96.4634 138.237Z" fill="#7F8B8C"/>
<path d="M127.271 125.27C127.271 125.27 127.271 125.27 127.271 125.513L130.32 127.163H130.741L134.159 125.27L131.057 123.668C130.999 123.62 130.924 123.594 130.846 123.594C130.769 123.594 130.694 123.62 130.636 123.668L127.271 125.27Z" fill="#7F8B8C"/>
<path d="M122.49 127.799L125.54 129.449C125.598 129.497 125.672 129.523 125.75 129.523C125.828 129.523 125.902 129.497 125.96 129.449L129.43 127.604V127.362L126.328 125.76C126.27 125.712 126.196 125.686 126.118 125.686C126.04 125.686 125.966 125.712 125.908 125.76L122.49 127.799Z" fill="#7F8B8C"/>
<path d="M118.017 130.28L121.119 131.93C121.173 131.966 121.237 131.985 121.303 131.985C121.369 131.985 121.434 131.966 121.487 131.93L124.905 130.134L121.855 128.484C121.791 128.45 121.719 128.432 121.645 128.432C121.571 128.432 121.499 128.45 121.435 128.484L118.017 130.28Z" fill="#7F8B8C"/>
<path d="M113.393 132.796L116.442 134.398C116.577 134.446 116.727 134.446 116.863 134.398L120.28 132.553C120.28 132.553 120.28 132.553 120.28 132.31L117.231 130.951H116.81L113.393 132.796Z" fill="#7F8B8C"/>
<path d="M108.767 135.277L111.816 136.928H112.237L115.654 135.034L112.605 133.433C112.451 133.384 112.285 133.384 112.132 133.433L108.767 135.277Z" fill="#7F8B8C"/>
<path d="M125.857 130.417L128.907 132.018C128.973 132.07 129.057 132.098 129.143 132.098C129.23 132.098 129.314 132.07 129.38 132.018L132.798 130.174L129.748 128.523C129.676 128.485 129.595 128.465 129.512 128.465C129.428 128.465 129.347 128.485 129.275 128.523L125.857 130.417Z" fill="#7F8B8C"/>
<path d="M121.229 132.942L124.278 134.592H124.751L128.169 132.748L125.119 131.097C125.053 131.046 124.969 131.018 124.883 131.018C124.796 131.018 124.712 131.046 124.646 131.097L121.229 132.942Z" fill="#7F8B8C"/>
<path d="M116.601 135.468L119.65 137.07C119.716 137.121 119.8 137.149 119.887 137.149C119.973 137.149 120.057 137.121 120.123 137.07L123.488 135.274L120.439 133.623H120.018L116.601 135.468Z" fill="#7F8B8C"/>
<path d="M111.975 137.94C111.975 137.94 111.975 137.94 111.975 138.182L115.024 139.833H115.445L118.862 137.988L115.76 136.386C115.625 136.337 115.475 136.337 115.34 136.386L111.975 137.94Z" fill="#7F8B8C"/>
<path d="M129.115 133.09C129.115 133.09 129.115 133.09 129.115 133.333L132.164 134.935H132.585L135.95 133.09L132.9 131.439H132.532L129.115 133.09Z" fill="#7F8B8C"/>
<path d="M124.49 135.561L127.54 137.212H127.75L131.115 135.319L128.013 133.717H127.645L124.49 135.561Z" fill="#7F8B8C"/>
<path d="M119.861 138.233L122.963 139.835C122.963 139.835 123.278 139.835 123.383 139.835L126.801 138.039L123.752 136.437C123.685 136.386 123.602 136.357 123.515 136.357C123.428 136.357 123.345 136.386 123.278 136.437L119.861 138.233Z" fill="#7F8B8C"/>
<path d="M124.642 139.834L127.692 141.485C127.745 141.52 127.809 141.539 127.876 141.539C127.942 141.539 128.006 141.52 128.06 141.485L131.53 139.64L128.428 137.99C128.364 137.955 128.291 137.937 128.217 137.938C128.143 137.938 128.071 137.955 128.007 137.99L124.642 139.834Z" fill="#7F8B8C"/>
<path d="M99.8276 140.072V140.363L102.93 141.965C102.994 141.999 103.066 142.017 103.14 142.017C103.214 142.017 103.286 141.999 103.35 141.965L107.136 139.878H107.609L111.079 138.033L107.977 136.383H107.556L104.086 138.276H103.666L99.8276 140.072Z" fill="#7F8B8C"/>
<path d="M103.927 142.26L106.976 143.862C107.034 143.91 107.109 143.936 107.187 143.936C107.264 143.936 107.339 143.91 107.397 143.862L110.709 142.066H111.182L114.232 140.464L111.182 138.814C111.116 138.763 111.032 138.734 110.946 138.734C110.859 138.734 110.775 138.763 110.709 138.814L107.66 140.464H107.239L103.927 142.26Z" fill="#7F8B8C"/>
<path d="M108.031 144.454L111.081 146.104C111.081 146.104 111.396 146.104 111.501 146.104L117.758 142.706H118.231L119.651 141.881H120.124L121.596 141.104C121.596 141.104 121.596 141.104 121.596 140.861L118.547 139.211H118.126L116.654 140.085C116.654 140.085 116.338 140.085 116.181 140.085L114.709 140.91H114.288L108.031 144.454Z" fill="#7F8B8C"/>
<path d="M119.964 142.36L123.013 144.011H123.434L126.851 142.166L123.749 140.564C123.692 140.517 123.617 140.49 123.539 140.49C123.461 140.49 123.387 140.517 123.329 140.564L119.964 142.36Z" fill="#7F8B8C"/>
<path d="M111.975 146.582L115.077 148.232C115.13 148.268 115.195 148.287 115.261 148.287C115.327 148.287 115.391 148.268 115.445 148.232L119.546 146.048L120.019 145.805L120.86 145.319H121.281L122.122 144.834L119.073 143.184C119.015 143.136 118.94 143.109 118.862 143.109C118.785 143.109 118.71 143.136 118.652 143.184L117.811 143.669H117.39L116.496 144.154H116.076L111.975 146.582Z" fill="#7F8B8C"/>
<path d="M125.645 143.914L128.747 145.565C128.805 145.588 128.868 145.599 128.931 145.599C128.994 145.599 129.057 145.588 129.115 145.565L132.533 143.72L129.431 142.118C129.372 142.096 129.31 142.084 129.247 142.084C129.183 142.084 129.121 142.096 129.062 142.118L125.645 143.914Z" fill="#7F8B8C"/>
<path d="M121.017 146.389L122.226 147.02C122.362 147.068 122.512 147.068 122.647 147.02L126.012 145.175L124.803 144.495C124.739 144.461 124.666 144.443 124.592 144.443C124.518 144.443 124.446 144.461 124.382 144.495L121.017 146.389Z" fill="#7F8B8C"/>
<path d="M122.911 147.406L124.068 147.989C124.134 148.04 124.218 148.068 124.304 148.068C124.391 148.068 124.475 148.04 124.541 147.989L127.958 146.144L126.749 145.513C126.685 145.479 126.613 145.461 126.539 145.461C126.465 145.461 126.393 145.479 126.329 145.513L122.911 147.406Z" fill="#7F8B8C"/>
<path d="M116.392 148.913L119.442 150.563H119.915L123.28 148.67L120.23 147.068H119.81L116.392 148.913Z" fill="#7F8B8C"/>
<path d="M117.912 87.2183C120.436 86.6358 140.521 93.5774 153.402 93.3832C158.66 93.3832 158.134 102.315 155.61 104.014C153.086 105.713 138.68 101.878 122.802 100.519C115.809 99.888 106.398 89.694 117.912 87.2183Z" fill="#10292E"/>
<path d="M63.6533 104.254C66.0719 103.331 86.1563 110.758 98.8273 108.865C104.085 108.137 104.874 117.117 102.665 119.108C100.457 121.098 85.5779 120.71 69.5946 119.933C54.9782 118.816 52.7173 108.137 63.6533 104.254Z" fill="#10292E"/>
<path d="M98.7229 116.593C98.0161 116.065 97.5084 115.343 97.2723 114.533C97.0363 113.722 97.0839 112.863 97.4085 112.078C98.0394 111.01 100.721 109.069 102.666 109.748C104.612 110.428 111.815 112.515 112.34 112.661C112.866 112.807 113.655 113.195 114.496 113.535C115.607 114.285 116.464 115.312 116.967 116.496C117.643 117.449 118.257 118.438 118.807 119.457C119.003 120.358 119.249 121.249 119.543 122.127C119.763 122.833 120.063 123.517 120.437 124.166C120.616 124.568 120.723 124.994 120.753 125.428C120.543 125.534 120.308 125.59 120.069 125.59C119.83 125.59 119.595 125.534 119.386 125.428C119.123 125.865 119.386 125.719 119.386 126.156C119.386 126.593 119.754 127.127 119.386 127.272C119.027 127.396 118.632 127.396 118.274 127.271C117.917 127.146 117.62 126.905 117.44 126.593C117.44 126.835 117.44 126.981 117.703 127.272C117.304 127.519 116.82 127.621 116.344 127.559C115.869 127.496 115.435 127.273 115.127 126.933C114.654 126.399 113.444 124.505 112.971 123.971C112.065 123.118 110.995 122.427 109.817 121.933L111.026 123.486C112.078 124.845 113.444 124.7 112.919 126.641C108.975 126.641 107.661 123.243 104.927 121.107C101.983 121.253 100.931 118.243 98.7229 116.593Z" fill="#FED8A7"/>
<path d="M171.908 120.229L203.928 102.754V112.317L131.687 151.491V154.306L129.374 153.044V143.627L172.013 120.229H171.908Z" fill="#BDC3C7"/>
<path d="M154.456 144.841L158.714 147.025V139.646L154.456 141.928V144.841Z" fill="#BDC3C7"/>
<path d="M144.679 150.125L148.938 152.358L189.632 130.174L185.426 127.941L144.679 150.125Z" fill="#BDC3C7"/>
<path d="M204.296 56.9238L206.872 57.9918V58.0403L131.687 98.8163L129.374 97.6028L204.296 56.9238Z" fill="#262626"/>
<path d="M129.374 97.6066L129.636 97.4609L131.897 98.8202H131.687V144.742L129.374 143.625V97.6066Z" fill="#262626"/>
<path d="M131.688 98.8128L206.872 57.9883V103.91L131.688 144.734V98.8128Z" fill="#2B2B2B"/>
<path d="M204.294 105.372V62.6055L134.893 100.275V143.041L204.294 105.372Z" fill="#2B2B2B"/>
<path d="M131.688 154.305V144.742L206.872 103.918V113.481L179.848 128.189V135.471L189.627 130.18V133.286L148.933 155.568V152.364L158.712 147.024V139.646L131.688 154.305Z" fill="#ECF0F1"/>
<path d="M126.958 190.012L88.1562 169.43V178.604L126.958 199.138V190.012Z" fill="#CC4525"/>
<path d="M153.614 175.881L114.813 155.348L88.1562 169.425L126.958 190.007L153.614 175.881Z" fill="#AA391A"/>
<path d="M153.192 176.803V176.755L127.377 190.444V198.211L153.192 184.57L153.613 184.327V185.007L126.956 199.133V190.007L153.613 175.881V176.56L153.192 176.803Z" fill="#AA391A"/>
<path d="M152.458 177.189L153.194 176.801V184.567L152.3 185.004L153.194 184.567L127.379 198.208V190.441L153.194 176.752V176.801L152.458 177.189Z" fill="#ECF0F1"/>
<path d="M119.439 188.165V193.602C119.43 193.691 119.45 193.78 119.496 193.859C119.543 193.937 119.615 194 119.702 194.039V188.505C119.74 188.429 119.759 188.346 119.759 188.262C119.759 188.178 119.74 188.096 119.702 188.02C119.702 188.02 119.439 188.02 119.439 188.165Z" fill="#ECF0F1"/>
<path d="M121.228 188.989V194.426C121.228 194.426 121.228 194.815 121.228 194.863C121.228 194.912 121.49 194.863 121.49 194.863V189.329C121.492 189.235 121.469 189.141 121.424 189.056C121.378 188.972 121.311 188.899 121.228 188.844C121.228 188.844 121.228 188.844 121.228 188.989Z" fill="#ECF0F1"/>
<path d="M122.754 189.856V195.293C122.769 195.383 122.806 195.468 122.86 195.543C122.914 195.619 122.986 195.682 123.069 195.73H123.331V190.148C123.31 189.962 123.217 189.789 123.069 189.662C123.069 189.662 122.754 189.662 122.754 189.856Z" fill="#ECF0F1"/>
<path d="M124.38 190.686V196.123C124.386 196.216 124.412 196.308 124.457 196.391C124.502 196.475 124.565 196.549 124.643 196.609V191.026C124.682 190.942 124.702 190.851 124.702 190.759C124.702 190.667 124.682 190.577 124.643 190.492C124.643 190.492 124.38 190.492 124.38 190.686Z" fill="#ECF0F1"/>
<path d="M224.474 166.71L193.308 150.178V157.547L224.474 174.04V166.71Z" fill="#7F8C8D"/>
<path d="M245.885 155.362L214.718 138.869L193.308 150.176L224.474 166.708L245.885 155.362Z" fill="#8A9495"/>
<path d="M245.546 156.104V156.065L224.811 167.06V173.299L245.546 162.343L245.884 162.148V162.693L224.473 174.04V166.709L245.884 155.363V155.909L245.546 156.104Z" fill="#8A9495"/>
<path d="M244.956 156.417L245.548 156.105V162.344L244.83 162.695L245.548 162.344L224.812 173.3V167.062L245.548 156.066V156.105L244.956 156.417Z" fill="#ECF0F1"/>
<path d="M218.433 165.226V169.593C218.425 169.665 218.441 169.737 218.479 169.799C218.517 169.862 218.574 169.913 218.644 169.944V165.499C218.674 165.438 218.69 165.372 218.69 165.304C218.69 165.237 218.674 165.171 218.644 165.109C218.644 165.109 218.433 165.109 218.433 165.226Z" fill="#ECF0F1"/>
<path d="M219.869 165.885V170.251C219.869 170.251 219.869 170.563 219.869 170.602C219.869 170.641 220.08 170.602 220.08 170.602V166.158C220.082 166.082 220.063 166.006 220.027 165.938C219.99 165.871 219.936 165.812 219.869 165.768C219.869 165.768 219.869 165.768 219.869 165.885Z" fill="#ECF0F1"/>
<path d="M221.097 166.586V170.953C221.11 171.024 221.139 171.093 221.182 171.153C221.226 171.214 221.283 171.265 221.35 171.303H221.561V166.82C221.544 166.67 221.469 166.532 221.35 166.43C221.35 166.43 221.097 166.43 221.097 166.586Z" fill="#ECF0F1"/>
<path d="M222.408 167.256V171.622C222.412 171.697 222.433 171.771 222.47 171.838C222.506 171.905 222.557 171.964 222.619 172.012V167.529C222.65 167.461 222.666 167.388 222.666 167.314C222.666 167.24 222.65 167.167 222.619 167.1C222.619 167.1 222.408 167.1 222.408 167.256Z" fill="#ECF0F1"/>
<path d="M224.474 158.913L193.308 142.381V149.75L224.474 166.243V158.913Z" fill="#95A0A0"/>
<path d="M245.885 147.565L214.718 131.072L193.308 142.379L224.474 158.911L245.885 147.565Z" fill="#A5AFAF"/>
<path d="M245.546 148.307V148.268L224.811 159.263V165.502L245.546 154.546L245.884 154.351V154.897L224.473 166.243V158.913L245.884 147.566V148.112L245.546 148.307Z" fill="#A5AFAF"/>
<path d="M244.956 148.62L245.548 148.309V154.547L244.83 154.898L245.548 154.547L224.812 165.503V159.265L245.548 148.27V148.309L244.956 148.62Z" fill="#ECF0F1"/>
<path d="M218.433 157.429V161.796C218.425 161.868 218.441 161.94 218.479 162.002C218.517 162.065 218.574 162.116 218.644 162.147V157.702C218.674 157.641 218.69 157.575 218.69 157.507C218.69 157.44 218.674 157.374 218.644 157.313C218.644 157.313 218.433 157.312 218.433 157.429Z" fill="#ECF0F1"/>
<path d="M219.866 158.088V162.455C219.866 162.455 219.866 162.767 219.866 162.806C219.866 162.845 220.077 162.806 220.077 162.806V158.361C220.079 158.285 220.061 158.21 220.024 158.142C219.987 158.074 219.933 158.015 219.866 157.971C219.866 157.971 219.866 157.971 219.866 158.088Z" fill="#ECF0F1"/>
<path d="M221.097 158.789V163.156C221.11 163.228 221.139 163.296 221.182 163.357C221.226 163.417 221.283 163.468 221.35 163.507H221.561V159.023C221.544 158.874 221.469 158.735 221.35 158.633C221.35 158.633 221.097 158.633 221.097 158.789Z" fill="#ECF0F1"/>
<path d="M222.408 159.459V163.826C222.412 163.9 222.433 163.974 222.47 164.041C222.506 164.108 222.557 164.167 222.619 164.216V159.732C222.65 159.664 222.666 159.591 222.666 159.517C222.666 159.443 222.65 159.371 222.619 159.303C222.619 159.303 222.408 159.303 222.408 159.459Z" fill="#ECF0F1"/>
</svg>
